<?xml version="1.0" encoding="utf-8"?>
<svg xmlns="http://www.w3.org/2000/svg" width="1280" height="760" viewBox="0 0 1280 760" role="img" aria-labelledby="title desc" xmlns:bx="https://boxy-svg.com"><title id="title">smart_frame_packet linked list before and after unlinking the middle node</title><desc id="desc">Top row shows three smart_frame_packet structs linked in a doubly linked list. Bottom row shows the middle packet detached, while the first and third packets point to each other.</desc><defs><style>
      text { font-family: ui-monospace, SFMono-Regular, Menlo, Consolas, monospace; fill: #1f2937; }
      .label { font-size: 16px; font-weight: 700; }
      .code  { font-size: 15px; }
      .small { font-size: 13px; }
      .box   { fill: #ffffff; stroke: #334155; stroke-width: 2; rx: 12; ry: 12; }
      .head  { fill: #e2e8f0; stroke: #334155; stroke-width: 2; }
      .dim   { fill: #f8fafc; stroke: #94a3b8; }
      .dimhead { fill: #e5e7eb; stroke: #94a3b8; }
      .fieldline { stroke: #cbd5e1; stroke-width: 1.5; }
      .nextArrow { stroke: #0f766e; stroke-width: 3; fill: none; }
      .prevArrow { stroke: #9333ea; stroke-width: 3; fill: none; }
      .nullArrow { stroke: #94a3b8; stroke-width: 2.5; fill: none; stroke-dasharray: 7 6; }
      .note { fill: #475569; }
    </style><marker id="arrowNext" viewBox="0 0 10 10" refX="9" refY="5" markerWidth="8" markerHeight="8" orient="auto-start-reverse"><path d="M 0 0 L 10 5 L 0 10 z" fill="#0f766e"/></marker><marker id="arrowPrev" viewBox="0 0 10 10" refX="9" refY="5" markerWidth="8" markerHeight="8" orient="auto-start-reverse"><path d="M 0 0 L 10 5 L 0 10 z" fill="#9333ea"/></marker><bx:export><bx:file format="svg" path="smart_frame_packet linked list before and after unlinking the middle node.svg"/></bx:export></defs><rect x="0" y="0" width="1280" height="760" fill="#f8fafc"/><text x="70" y="52" class="label" style="white-space: pre;">Before: doubly linked list</text><text x="70" y="402" class="label" style="white-space: pre;">After: middle node unlinked</text><g id="top-left" transform="translate(70,90)"><rect class="box" x="0" y="0" width="260" height="180"/><rect class="head" x="0" y="0" width="260" height="34" rx="12" ry="12"/><line class="fieldline" x1="0" y1="34" x2="260" y2="34"/><line class="fieldline" x1="0" y1="72" x2="260" y2="72"/><line class="fieldline" x1="0" y1="110" x2="260" y2="110"/><line class="fieldline" x1="0" y1="148" x2="260" y2="148"/><text x="16" y="23" class="code" style="white-space: pre;">packet A : smart_frame_packet</text><text x="16" y="59" class="code" style="white-space: pre;">next    → packet B</text><text x="16" y="97" class="code" style="white-space: pre;">prev    → …</text><text x="16" y="135" class="code" style="white-space: pre;">opcode  = …</text><text x="16" y="173" class="code" style="white-space: pre;">payload = …</text></g><g id="top-mid" transform="translate(500,90)"><rect class="box" x="0" y="0" width="260" height="180"/><rect class="head" x="0" y="0" width="260" height="34" rx="12" ry="12"/><line class="fieldline" x1="0" y1="34" x2="260" y2="34"/><line class="fieldline" x1="0" y1="72" x2="260" y2="72"/><line class="fieldline" x1="0" y1="110" x2="260" y2="110"/><line class="fieldline" x1="0" y1="148" x2="260" y2="148"/><text x="16" y="23" class="code" style="white-space: pre;">packet B : smart_frame_packet</text><text x="16" y="59" class="code" style="white-space: pre;">next    → packet C</text><text x="16" y="97" class="code" style="white-space: pre;">prev    → packet A</text><text x="16" y="135" class="code" style="white-space: pre;">opcode  = …</text><text x="16" y="173" class="code" style="white-space: pre;">payload = …</text></g><g id="top-right" transform="translate(930,90)"><rect class="box" x="0" y="0" width="260" height="180"/><rect class="head" x="0" y="0" width="260" height="34" rx="12" ry="12"/><line class="fieldline" x1="0" y1="34" x2="260" y2="34"/><line class="fieldline" x1="0" y1="72" x2="260" y2="72"/><line class="fieldline" x1="0" y1="110" x2="260" y2="110"/><line class="fieldline" x1="0" y1="148" x2="260" y2="148"/><text x="16" y="23" class="code" style="white-space: pre;">packet C : smart_frame_packet</text><text x="16" y="59" class="code" style="white-space: pre;">next    → …</text><text x="16" y="97" class="code" style="white-space: pre;">prev    → packet B</text><text x="16" y="135" class="code" style="white-space: pre;">opcode  = …</text><text x="16" y="173" class="code" style="white-space: pre;">payload = …</text></g><path class="nextArrow" marker-end="url(#arrowNext)" d="M 329.088 144.598 C 389.088 141.933 437.263 108.175 498.175 108.103"/><text class="small note" style="white-space: pre;" x="405" y="103" dx="-2.737" dy="7.299">next</text><path class="nextArrow" marker-end="url(#arrowNext)" d="M 760.912 143.685 C 818.175 143.757 871.824 107.263 928.175 105.366"/><text class="small note" style="white-space: pre;" x="835" y="103" dx="8.211" dy="0.912">next</text><path class="prevArrow" marker-end="url(#arrowPrev)" d="M 930 190.737 C 861.842 179.892 788.014 137.924 762.737 104.975" style=""/><text class="small note" style="white-space: pre;" x="835" y="230" dx="2.737" dy="-48.356">prev</text><path class="prevArrow" marker-end="url(#arrowPrev)" d="M 500 182.526 C 440 182.293 366.278 147.937 333.649 108.624"/><text class="small note" style="white-space: pre;" x="405" y="230" dx="2.738" dy="-45.618">prev</text><g id="bot-left" transform="translate(70,440)"><rect class="box" x="0" y="0" width="260" height="180"/><rect class="head" x="0" y="0" width="260" height="34" rx="12" ry="12"/><line class="fieldline" x1="0" y1="34" x2="260" y2="34"/><line class="fieldline" x1="0" y1="72" x2="260" y2="72"/><line class="fieldline" x1="0" y1="110" x2="260" y2="110"/><line class="fieldline" x1="0" y1="148" x2="260" y2="148"/><text x="16" y="23" class="code" style="white-space: pre;">packet A : smart_frame_packet</text><text x="16" y="59" class="code" style="white-space: pre;">next    → packet C</text><text x="16" y="97" class="code" style="white-space: pre;">prev    → …<tspan x="16" dy="1em">​</tspan><tspan x="16" dy="1em">​</tspan></text><text x="16" y="135" class="code" style="white-space: pre;">opcode  = …</text><text x="16" y="173" class="code" style="white-space: pre;">payload = …</text><text style="white-space: pre; fill: rgb(51, 51, 51); font-family: &quot;Arial&quot;, sans-serif; font-size: 28px;" x="1297.63" y="-333.25">Enter your text here</text></g><g id="bot-mid" transform="translate(500,440)"><rect class="box dim" x="0" y="0" width="260" height="180"/><rect class="head dimhead" x="0" y="0" width="260" height="34" rx="12" ry="12"/><line class="fieldline" x1="0" y1="34" x2="260" y2="34"/><line class="fieldline" x1="0" y1="72" x2="260" y2="72"/><line class="fieldline" x1="0" y1="110" x2="260" y2="110"/><line class="fieldline" x1="0" y1="148" x2="260" y2="148"/><text x="16" y="23" class="code" fill="#475569" style="white-space: pre;">packet B : detached</text><text x="16" y="59" class="code" fill="#475569" style="white-space: pre;">next    = …</text><text x="16" y="97" class="code" fill="#475569" style="white-space: pre;">prev    = …</text><text x="16" y="135" class="code" fill="#475569" style="white-space: pre;">opcode  = …</text><text x="16" y="173" class="code" fill="#475569" style="white-space: pre;">payload = …</text><text style="white-space: pre; fill: rgb(51, 51, 51); font-family: &quot;Arial&quot;, sans-serif; font-size: 28px;" x="830.228" y="-10.276">Enter your text here</text></g><g id="bot-right" transform="translate(930,440)"><rect class="box" x="0" y="0" width="260" height="180"/><rect class="head" x="0" y="0" width="260" height="34" rx="12" ry="12"/><line class="fieldline" x1="0" y1="34" x2="260" y2="34"/><line class="fieldline" x1="0" y1="72" x2="260" y2="72"/><line class="fieldline" x1="0" y1="110" x2="260" y2="110"/><line class="fieldline" x1="0" y1="148" x2="260" y2="148"/><text x="16" y="23" class="code" style="white-space: pre;">packet C : smart_frame_packet</text><text x="16" y="59" class="code" style="white-space: pre;">next    → …</text><text x="16" y="97" class="code" style="white-space: pre;">prev    → packet A</text><text x="16" y="135" class="code" style="white-space: pre;">opcode  = …</text><text x="16" y="173" class="code" style="white-space: pre;">payload = …</text></g><path class="nextArrow" marker-end="url(#arrowNext)" d="M 331.825 494.571 C 434.727 396.646 580.821 360.872 710.111 376.181 C 796.616 386.424 875.599 415.451 929.088 454.481" style=""/><text class="small note" style="white-space: pre;" x="620" y="408" dx="7.299" dy="-52.005">next</text><path class="prevArrow" marker-end="url(#arrowPrev)" d="M 928.175 531.613 C 749.123 784.427 428.763 689.54 332.737 458.624" style=""/><text class="small note" style="white-space: pre;" x="620" y="673.83" dx="22.81" dy="23.722">prev</text></svg>